<?xml version="1.0" encoding="UTF-8" standalone="no"?>
<!-- Created with Inkscape (http://www.inkscape.org/) -->

<svg
   xmlns:dc="http://purl.org/dc/elements/1.1/"
   xmlns:cc="http://creativecommons.org/ns#"
   xmlns:rdf="http://www.w3.org/1999/02/22-rdf-syntax-ns#"
   xmlns:svg="http://www.w3.org/2000/svg"
   xmlns="http://www.w3.org/2000/svg"
   xmlns:sodipodi="http://sodipodi.sourceforge.net/DTD/sodipodi-0.dtd"
   xmlns:inkscape="http://www.inkscape.org/namespaces/inkscape"
   width="210mm"
   height="297mm"
   viewBox="0 0 744.09448819 1052.3622047"
   id="svg2"
   version="1.1"
   inkscape:version="0.91 r"
   sodipodi:docname="wiring.svg">
  <defs
     id="defs4">
    <marker
       inkscape:stockid="Arrow1Lend"
       orient="auto"
       refY="0.0"
       refX="0.0"
       id="Arrow1Lend"
       style="overflow:visible;"
       inkscape:isstock="true">
      <path
         id="path4633"
         d="M 0.0,0.0 L 5.0,-5.0 L -12.5,0.0 L 5.0,5.0 L 0.0,0.0 z "
         style="fill-rule:evenodd;stroke:#000000;stroke-width:1pt;stroke-opacity:1;fill:#000000;fill-opacity:1"
         transform="scale(0.8) rotate(180) translate(12.5,0)" />
    </marker>
    <marker
       inkscape:stockid="Arrow1Lstart"
       orient="auto"
       refY="0.0"
       refX="0.0"
       id="Arrow1Lstart"
       style="overflow:visible"
       inkscape:isstock="true">
      <path
         id="path4630"
         d="M 0.0,0.0 L 5.0,-5.0 L -12.5,0.0 L 5.0,5.0 L 0.0,0.0 z "
         style="fill-rule:evenodd;stroke:#000000;stroke-width:1pt;stroke-opacity:1;fill:#000000;fill-opacity:1"
         transform="scale(0.8) translate(12.5,0)" />
    </marker>
    <marker
       inkscape:stockid="Arrow1Lend"
       orient="auto"
       refY="0"
       refX="0"
       id="Arrow1Lend-2"
       style="overflow:visible"
       inkscape:isstock="true">
      <path
         inkscape:connector-curvature="0"
         id="path4633-0"
         d="M 0,0 5,-5 -12.5,0 5,5 0,0 Z"
         style="fill:#000000;fill-opacity:1;fill-rule:evenodd;stroke:#000000;stroke-width:1pt;stroke-opacity:1"
         transform="matrix(-0.8,0,0,-0.8,-10,0)" />
    </marker>
    <marker
       inkscape:stockid="Arrow1Lend"
       orient="auto"
       refY="0"
       refX="0"
       id="Arrow1Lend-7"
       style="overflow:visible"
       inkscape:isstock="true">
      <path
         inkscape:connector-curvature="0"
         id="path4633-06"
         d="M 0,0 5,-5 -12.5,0 5,5 0,0 Z"
         style="fill:#000000;fill-opacity:1;fill-rule:evenodd;stroke:#000000;stroke-width:1pt;stroke-opacity:1"
         transform="matrix(-0.8,0,0,-0.8,-10,0)" />
    </marker>
    <marker
       inkscape:stockid="Arrow1Lend"
       orient="auto"
       refY="0"
       refX="0"
       id="Arrow1Lend-3"
       style="overflow:visible"
       inkscape:isstock="true">
      <path
         inkscape:connector-curvature="0"
         id="path4633-5"
         d="M 0,0 5,-5 -12.5,0 5,5 0,0 Z"
         style="fill:#000000;fill-opacity:1;fill-rule:evenodd;stroke:#000000;stroke-width:1pt;stroke-opacity:1"
         transform="matrix(-0.8,0,0,-0.8,-10,0)" />
    </marker>
  </defs>
  <sodipodi:namedview
     id="base"
     pagecolor="#ffffff"
     bordercolor="#666666"
     borderopacity="1.0"
     inkscape:pageopacity="0.0"
     inkscape:pageshadow="2"
     inkscape:zoom="1.4"
     inkscape:cx="1199.856"
     inkscape:cy="893.20263"
     inkscape:document-units="px"
     inkscape:current-layer="layer1"
     showgrid="false"
     inkscape:window-width="1366"
     inkscape:window-height="716"
     inkscape:window-x="0"
     inkscape:window-y="0"
     inkscape:window-maximized="1"
     showguides="false" />
  <metadata
     id="metadata7">
    <rdf:RDF>
      <cc:Work
         rdf:about="">
        <dc:format>image/svg+xml</dc:format>
        <dc:type
           rdf:resource="http://purl.org/dc/dcmitype/StillImage" />
        <dc:title></dc:title>
      </cc:Work>
    </rdf:RDF>
  </metadata>
  <g
     inkscape:label="Layer 1"
     inkscape:groupmode="layer"
     id="layer1">
    <rect
       style="fill:#ffffff;fill-opacity:1;stroke:#000000;stroke-width:1.00486326;stroke-miterlimit:4;stroke-dasharray:none;stroke-dashoffset:0;stroke-opacity:1"
       id="rect3336"
       width="76.97467"
       height="39.092625"
       x="135.29228"
       y="-1220.1488"
       transform="matrix(0,1,-1,0,0,0)" />
    <rect
       style="fill:#ffffff;fill-opacity:1;stroke:#000000;stroke-width:1;stroke-miterlimit:4;stroke-dasharray:none;stroke-dashoffset:0;stroke-opacity:1"
       id="rect4138"
       width="148.34996"
       height="125.72031"
       x="903.53174"
       y="75.994659" />
    <rect
       style="fill:#ffffff;fill-opacity:1;stroke:#000000;stroke-width:0.9347409;stroke-miterlimit:4;stroke-dasharray:none;stroke-dashoffset:0;stroke-opacity:1"
       id="rect3336-1"
       width="39.039116"
       height="76.299644"
       x="1312.3114"
       y="135.92944" />
    <text
       xml:space="preserve"
       style="font-style:normal;font-weight:normal;font-size:13.35530663px;line-height:125%;font-family:sans-serif;letter-spacing:0px;word-spacing:0px;fill:#000000;fill-opacity:1;stroke:none;stroke-width:1px;stroke-linecap:butt;stroke-linejoin:miter;stroke-opacity:1"
       x="1112.1951"
       y="172.77013"
       id="text4180"
       sodipodi:linespacing="125%"><tspan
         sodipodi:role="line"
         id="tspan4182"
         x="1112.1951"
         y="172.77013">USB</tspan></text>
    <rect
       style="fill:#ffffff;fill-opacity:1;stroke:#000000;stroke-width:0.72287476;stroke-miterlimit:4;stroke-dasharray:none;stroke-dashoffset:0;stroke-opacity:1"
       id="rect4184"
       width="172.97964"
       height="10.716311"
       x="893.69867"
       y="200.06671" />
    <text
       xml:space="preserve"
       style="font-style:normal;font-variant:normal;font-weight:normal;font-stretch:normal;font-size:15.00500011px;line-height:125%;font-family:sans-serif;-inkscape-font-specification:'sans-serif, Normal';text-align:center;letter-spacing:0px;word-spacing:0px;writing-mode:lr-tb;text-anchor:middle;fill:#000000;fill-opacity:1;stroke:none;stroke-width:1px;stroke-linecap:butt;stroke-linejoin:miter;stroke-opacity:1"
       x="1202.2568"
       y="106.87967"
       id="text4180-6"
       sodipodi:linespacing="125%"><tspan
         sodipodi:role="line"
         id="tspan4182-2"
         x="1202.2568"
         y="106.87967">micro-</tspan><tspan
         sodipodi:role="line"
         x="1202.2568"
         y="125.63592"
         id="tspan4527">controller</tspan></text>
    <text
       xml:space="preserve"
       style="font-style:normal;font-weight:normal;font-size:15.00528049px;line-height:125%;font-family:sans-serif;letter-spacing:0px;word-spacing:0px;fill:#000000;fill-opacity:1;stroke:none;stroke-width:1px;stroke-linecap:butt;stroke-linejoin:miter;stroke-opacity:1"
       x="882.89209"
       y="64.002258"
       id="text4180-6-0"
       sodipodi:linespacing="125%"><tspan
         sodipodi:role="line"
         id="tspan4182-2-01"
         x="882.89209"
         y="64.002258">laptop / PC / Raspberry Pi</tspan></text>
    <text
       xml:space="preserve"
       style="font-style:normal;font-variant:normal;font-weight:normal;font-stretch:normal;font-size:9.35939884px;line-height:125%;font-family:sans-serif;-inkscape-font-specification:'sans-serif, Normal';text-align:center;letter-spacing:0px;word-spacing:0px;writing-mode:lr-tb;text-anchor:middle;fill:#000000;fill-opacity:1;stroke:none;stroke-width:1px;stroke-linecap:butt;stroke-linejoin:miter;stroke-opacity:1"
       x="1124.8058"
       y="185.49719"
       id="text4180-6-3-1"
       sodipodi:linespacing="125%"><tspan
         sodipodi:role="line"
         id="tspan4182-2-0-7"
         x="1124.8058"
         y="185.49719">&quot;SerialCommand&quot;</tspan><tspan
         sodipodi:role="line"
         x="1124.8058"
         y="197.19644"
         id="tspan4299-8">protocol</tspan></text>
    <rect
       style="fill:#ececec;fill-opacity:1;stroke:#000000;stroke-width:1.06287968;stroke-miterlimit:4;stroke-dasharray:none;stroke-dashoffset:0;stroke-opacity:1"
       id="rect4441"
       width="131.7018"
       height="107.64017"
       x="911.81494"
       y="84.213066" />
    <text
       xml:space="preserve"
       style="font-style:normal;font-variant:normal;font-weight:normal;font-stretch:normal;font-size:11.74000072px;line-height:125%;font-family:sans-serif;-inkscape-font-specification:'sans-serif, Normal';text-align:start;letter-spacing:0px;word-spacing:0px;writing-mode:lr-tb;text-anchor:start;fill:#000000;fill-opacity:1;stroke:none;stroke-width:1px;stroke-linecap:butt;stroke-linejoin:miter;stroke-opacity:1"
       x="925.83911"
       y="99.659943"
       id="text4180-6-3"
       sodipodi:linespacing="125%"><tspan
         sodipodi:role="line"
         x="925.83911"
         y="99.659943"
         id="tspan4419">Jupyter notebook </tspan></text>
    <text
       xml:space="preserve"
       style="font-style:normal;font-weight:normal;font-size:15.00528049px;line-height:125%;font-family:sans-serif;letter-spacing:0px;word-spacing:0px;fill:#000000;fill-opacity:1;stroke:none;stroke-width:1px;stroke-linecap:butt;stroke-linejoin:miter;stroke-opacity:1"
       x="1300.3842"
       y="125.41598"
       id="text4180-6-6"
       sodipodi:linespacing="125%"><tspan
         sodipodi:role="line"
         id="tspan4182-2-3"
         x="1300.3842"
         y="125.41598">C12880</tspan></text>
    <path
       style="fill:none;fill-rule:evenodd;stroke:#ffad04;stroke-width:1px;stroke-linecap:butt;stroke-linejoin:miter;stroke-opacity:1"
       d="m 1220.3677,147.72242 91.4285,0"
       id="path4461"
       inkscape:connector-curvature="0" />
    <path
       style="fill:none;fill-rule:evenodd;stroke:#0000f9;stroke-width:1px;stroke-linecap:butt;stroke-linejoin:miter;stroke-opacity:1"
       d="m 1220.3677,158.93435 91.4285,0"
       id="path4461-9"
       inkscape:connector-curvature="0" />
    <path
       style="fill:#ffff00;fill-rule:evenodd;stroke:#fbf908;stroke-width:1.00550914px;stroke-linecap:butt;stroke-linejoin:miter;stroke-opacity:1"
       d="m 1219.9672,169.78914 92.4387,0"
       id="path4461-7"
       inkscape:connector-curvature="0" />
    <path
       style="fill:none;fill-rule:evenodd;stroke:#00fc00;stroke-width:1.00584233px;stroke-linecap:butt;stroke-linejoin:miter;stroke-opacity:1"
       d="m 1219.9061,180.8098 92.4999,0"
       id="path4461-72"
       inkscape:connector-curvature="0" />
    <text
       xml:space="preserve"
       style="font-style:normal;font-variant:normal;font-weight:normal;font-stretch:normal;font-size:8.37800026px;line-height:125%;font-family:sans-serif;-inkscape-font-specification:'sans-serif, Normal';text-align:end;letter-spacing:0px;word-spacing:0px;writing-mode:lr-tb;text-anchor:end;fill:#000000;fill-opacity:1;stroke:none;stroke-width:1px;stroke-linecap:butt;stroke-linejoin:miter;stroke-opacity:1"
       x="1216.8745"
       y="150.95647"
       id="text4490"
       sodipodi:linespacing="125%"><tspan
         sodipodi:role="line"
         id="tspan4492"
         x="1216.8745"
         y="150.95647">DIO</tspan><tspan
         sodipodi:role="line"
         x="1216.8745"
         y="161.42897"
         id="tspan4494">DIO</tspan><tspan
         sodipodi:role="line"
         x="1216.8745"
         y="171.90147"
         id="tspan4496">DIO</tspan><tspan
         sodipodi:role="line"
         x="1216.8745"
         y="182.37396"
         id="tspan4498">AIO</tspan><tspan
         sodipodi:role="line"
         x="1216.8745"
         y="192.84647"
         id="tspan4571">PWR</tspan><tspan
         sodipodi:role="line"
         x="1216.8745"
         y="203.31897"
         id="tspan4573">GND</tspan></text>
    <text
       xml:space="preserve"
       style="font-style:normal;font-variant:normal;font-weight:normal;font-stretch:normal;font-size:8.37800026px;line-height:125%;font-family:sans-serif;-inkscape-font-specification:'sans-serif, Normal';text-align:start;letter-spacing:0px;word-spacing:0px;writing-mode:lr-tb;text-anchor:start;fill:#000000;fill-opacity:1;stroke:none;stroke-width:1px;stroke-linecap:butt;stroke-linejoin:miter;stroke-opacity:1"
       x="1315.8822"
       y="150.70459"
       id="text4490-2"
       sodipodi:linespacing="125%"><tspan
         sodipodi:role="line"
         id="tspan4492-6"
         x="1315.8822"
         y="150.70459">TRG</tspan><tspan
         sodipodi:role="line"
         x="1315.8822"
         y="161.17709"
         id="tspan4494-9">ST</tspan><tspan
         sodipodi:role="line"
         x="1315.8822"
         y="171.6496"
         id="tspan4496-7">CLK</tspan><tspan
         sodipodi:role="line"
         x="1315.8822"
         y="182.12209"
         id="tspan4498-1">VIDEO</tspan><tspan
         sodipodi:role="line"
         x="1315.8822"
         y="192.59459"
         id="tspan4575">PWR</tspan><tspan
         sodipodi:role="line"
         x="1315.8822"
         y="203.06709"
         id="tspan4577">GND</tspan></text>
    <path
       style="fill:#ff0000;fill-rule:evenodd;stroke:#fd0000;stroke-width:1.00584233px;stroke-linecap:butt;stroke-linejoin:miter;stroke-opacity:1"
       d="m 1220.4814,191.16156 92.4999,0"
       id="path4461-72-1"
       inkscape:connector-curvature="0" />
    <path
       style="fill:none;fill-rule:evenodd;stroke:#000000;stroke-width:1.00584233px;stroke-linecap:butt;stroke-linejoin:miter;stroke-opacity:1"
       d="m 1220.2288,201.01055 92.4999,0"
       id="path4461-72-1-1"
       inkscape:connector-curvature="0" />
    <text
       xml:space="preserve"
       style="font-style:normal;font-weight:normal;font-size:9.55318165px;line-height:125%;font-family:sans-serif;letter-spacing:0px;word-spacing:0px;fill:#000000;fill-opacity:1;stroke:none;stroke-width:1px;stroke-linecap:butt;stroke-linejoin:miter;stroke-opacity:1"
       x="930.29266"
       y="156.19751"
       id="text4579"
       sodipodi:linespacing="125%"><tspan
         sodipodi:role="line"
         id="tspan4581"
         x="930.29266"
         y="156.19751">- set integration time</tspan><tspan
         sodipodi:role="line"
         x="930.29266"
         y="168.13899"
         id="tspan4583">- capture spectra</tspan><tspan
         sodipodi:role="line"
         x="930.29266"
         y="180.08046"
         id="tspan4585">- plot and analyze</tspan></text>
    <g
       id="g4591"
       transform="translate(-19.999999,-37.758168)">
      <rect
         y="146.26363"
         x="956.11761"
         height="34.328678"
         width="76.755089"
         id="rect4587"
         style="fill:#f9f9f9;fill-opacity:1;stroke:#ffad04;stroke-width:1.01651084;stroke-miterlimit:4;stroke-dasharray:none;stroke-dashoffset:0;stroke-opacity:1" />
      <path
         inkscape:connector-curvature="0"
         id="path4589"
         d="m 960.14999,175.04472 c 1.86777,-0.27628 -0.46695,-1.82496 0,-2.52538 0.26414,-0.39621 0.76515,-0.60182 1.01015,-1.01015 1.54001,-0.35755 0.19464,-1.39943 0.50508,-2.02031 0.10648,-0.21296 0.42978,-0.2792 0.50507,-0.50507 0,-2.29925 -0.23809,-0.0289 0.50508,-1.51523 0.16069,-0.32139 -0.14556,-2.08872 0,-2.52538 1.21949,-3.65848 -0.14562,0.7963 1.01015,-1.51523 0.15059,-0.30117 -0.15058,-0.70899 0,-1.01015 0.10648,-0.21296 0.3986,-0.29212 0.50508,-0.50508 0.0805,-0.16096 0,-2.07398 0,-2.52538 0,-0.26982 -0.0723,-2.38083 0,-2.52538 0.10648,-0.21296 0.42978,-0.2792 0.50507,-0.50508 0.10648,-0.31944 -0.33671,-1.01015 0,-1.01015 0.33672,0 -0.23809,0.77206 0,1.01015 0.16836,0.16836 0.33672,-0.67343 0.50508,-0.50508 0.2381,0.2381 0,0.67344 0,1.01016 0,1.01015 0,2.0203 0,3.03045 0,1.68359 0,3.36718 0,5.05077 0,0.55149 -0.10888,2.19874 0,2.52538 0.61035,1.83105 0.23964,0.35946 1.01015,1.51523 0.41765,0.62647 0.59251,1.39383 1.01015,2.0203 0.13208,0.19811 0.3986,0.29212 0.50508,0.50508 0.15059,0.30117 -0.15058,0.70898 0,1.01015 0.10648,0.21296 0.33672,0.33672 0.50508,0.50508 0.73327,0.73327 0.54676,0.50507 1.51523,0.50507 1.19212,0 1.18814,0.2381 2.0203,-1.01015 0.18678,-0.28016 -0.15058,-0.70898 0,-1.01015 0.10648,-0.21296 0.3986,-0.29212 0.50508,-0.50508 0.0664,-0.1328 0,-1.75619 0,-2.0203 0,-0.33672 0,-0.67344 0,-1.01016 0,-0.16835 -0.0753,-0.35449 0,-0.50507 0.74317,-1.48634 0.50507,0.78402 0.50507,-1.51523 0,-0.50508 0,-1.01015 0,-1.51523 0,-0.16836 -0.11904,-0.38603 0,-0.50508 0.11905,-0.11904 0.50508,-0.16835 0.50508,0 0,0.16836 -0.67343,0 -0.50508,0 0.33672,0 0.67344,0 1.01016,0 0.16836,0 0.38603,-0.11904 0.50507,0 0.2662,0.2662 0.38603,0.65301 0.50508,1.01016 0.10648,0.31944 0,0.67343 0,1.01015 0,0.67343 0,1.34687 0,2.0203 0,0.50508 0,1.01016 0,1.51523 0,0.16836 -0.16836,0.50508 0,0.50508 0.23809,0 0.3986,-0.29212 0.50508,-0.50508 0.0753,-0.15058 0,-0.33671 0,-0.50507 0,-0.33672 -0.10648,-0.69072 0,-1.01016 0.15058,-0.45175 0.79719,-0.58423 1.01015,-1.01015 0.0753,-0.15058 0,-0.33672 0,-0.50507 0,-0.33672 -0.10648,-0.69072 0,-1.01016 0.0753,-0.22587 0.2792,-0.58037 0.50507,-0.50507 1.24825,0.41608 1.01016,1.12239 1.01016,2.0203 0,0.16836 -0.0753,0.35449 0,0.50508 0.10648,0.21296 0.33671,0.33672 0.50507,0.50507 0.16836,0.16836 0.29212,0.3986 0.50508,0.50508 0.15058,0.0753 0.35449,-0.0753 0.50508,0 0.21295,0.10648 0.33671,0.33672 0.50507,0.50508 0.16836,0.16836 0.3986,0.29211 0.50508,0.50507 0.15092,0.30185 -0.33249,1.01016 0.50507,1.01016 0.57581,0 1.462,-2.76429 1.51523,-3.03046 0.066,-0.33018 -0.066,-0.67998 0,-1.01015 0.10441,-0.52206 0.40067,-0.99317 0.50508,-1.51523 0.38526,-1.92628 -0.71562,-0.084 0.50508,-2.52538 1.15576,-2.31154 -0.20934,2.14324 1.01015,-1.51523 0.098,-0.2941 0,-2.68293 0,-3.03046 0,-0.16836 0,-0.33672 0,-0.50508 0,-0.16836 -0.0753,-0.35449 0,-0.50507 0.10648,-0.21296 0.373,-0.30697 0.50507,-0.50508 0.20883,-0.31323 0.38603,-0.65301 0.50508,-1.01015 0.0532,-0.15972 -0.0532,-0.34536 0,-0.50508 0.13295,-0.39885 0.32871,-1.35087 1.01015,-1.01015 0.21296,0.10648 0.37301,0.30697 0.50508,0.50508 0.20882,0.31323 0.38603,0.653 0.50508,1.01015 0.10887,0.32663 0,1.97389 0,2.52538 0,1.51523 0,3.03046 0,4.54569 0,0.29102 -0.0921,2.34129 0,2.52538 0.10648,0.21296 0.39859,0.29211 0.50507,0.50507 0.0753,0.15059 0,0.33672 0,0.50508 0,0.33672 0,0.67343 0,1.01015 0,1.38516 -0.23672,1.78358 1.01015,3.03046 0.11905,0.11905 0,-0.33672 0,-0.50508 0,-0.34876 -0.0768,-1.86674 0,-2.0203 0.10648,-0.21296 0.3986,-0.29212 0.50508,-0.50508 0.0753,-0.15058 0,-0.33672 0,-0.50507 0,-0.33672 -0.0817,-0.68349 0,-1.01016 0.0913,-0.36522 0.38603,-0.65301 0.50508,-1.01015 0.0532,-0.15972 -0.0753,-0.35449 0,-0.50508 0.2065,-0.41299 0.56228,-0.65436 1.01015,-0.50507 0.35714,0.11905 0.74395,0.23888 1.01015,0.50507 0.11905,0.11905 0,0.33672 0,0.50508 0,0.16836 0,0.33672 0,0.50508 0,0.67343 0,1.34687 0,2.0203 0,0.33672 -0.10648,0.69072 0,1.01015 0.11905,0.35715 0.38603,0.65301 0.50508,1.01016 0.095,0.28496 0,1.18334 0,1.51523 0,0.50507 -0.15972,1.03607 0,1.51522 0.62412,1.87238 0.50507,-0.61566 0.50507,1.01016 0,0.16836 0.16836,0.50507 0,0.50507 -0.16835,0 -0.11904,-0.62412 0,-0.50507 0.2662,0.2662 0.16836,0.84179 0.50508,1.01015 0.21296,0.10648 0.33672,-0.33672 0.50508,-0.50508 0.16836,-0.16836 0.39859,-0.29211 0.50507,-0.50507 0.26093,-0.52185 -0.45888,-1.19391 0.50508,-1.51523 0.31944,-0.10648 1.01015,-0.33672 1.01015,0 0,0.33672 -1.34687,0 -1.01015,0 0.50508,0 1.01015,0 1.51523,0 0.16836,0 0.50507,-0.16836 0.50507,0 0,0.16836 -0.67343,0 -0.50507,0 0.33672,0 0.69071,-0.10648 1.01015,0 0.45176,0.15058 0.58424,0.79719 1.01015,1.01015 0.15059,0.0753 0.33672,0 0.50508,0 0.33672,0 0.67344,0 1.01014,0 0.3367,0 0.6735,0 1.0102,0 0.1683,0 0.3545,0.0753 0.505,0 0.426,-0.21296 0.5584,-0.85957 1.0102,-1.01015 1.5948,-0.53161 1.3644,0.85933 2.0203,1.51523 0.3422,0.34219 1.5017,-0.62124 2.0203,-1.01016 0.1905,-0.14285 0.3069,-0.373 0.505,-0.50507 0.3133,-0.20882 0.744,-0.23888 1.0102,-0.50508 0.4292,-0.42923 0.5809,-1.08599 1.0101,-1.51523 0.1191,-0.11904 0.3367,0 0.5051,0 0.1684,0 0.3367,0 0.5051,0 1.4863,0 0.772,-0.23809 2.0203,1.01016 0.1683,0.16835 0.4298,0.2792 0.5051,0.50507 0.1064,0.31944 0,0.67344 0,1.01015 0,0.33672 0,0.67344 0,1.01016 0,0.16836 0.1683,0.50507 0,0.50507 -0.1684,0 0,-0.33671 0,-0.50507 0,-0.16836 0,-0.33672 0,-0.50508 0,-0.42325 -0.1074,-2.31072 0,-2.52538 0.075,-0.15059 0.365,0.0934 0.505,0 0.3963,-0.26414 0.6735,-0.67344 1.0102,-1.01015 0.1683,-0.16836 0.373,-0.30697 0.5051,-0.50508 0.3076,-0.46138 0.4311,-1.22571 1.0101,-1.51523 0.1506,-0.0753 0.3367,0 0.5051,0 1.1608,0 0.6973,0.4649 1.5152,1.01015 0.3133,0.20883 0.6969,0.29626 1.0102,0.50508 0.1981,0.13207 0.3146,0.36222 0.5051,0.50508 0.4856,0.36421 1.0296,0.64593 1.5152,1.01015 0.1905,0.14286 0.2921,0.3986 0.5051,0.50508 0.1505,0.0753 0.3544,-0.0753 0.505,0 0.213,0.10648 0.3367,0.33671 0.5051,0.50507 0.2971,0.29706 1.7864,1.90336 2.0203,2.02031 0.3067,0.15334 2.7238,-0.15335 3.0305,0 0.2129,0.10648 0.2792,0.42978 0.505,0.50507 0.2716,0.0905 1.5927,0 2.0204,0"
         style="fill:none;fill-rule:evenodd;stroke:#000000;stroke-width:0.5;stroke-linecap:butt;stroke-linejoin:miter;stroke-miterlimit:4;stroke-dasharray:none;stroke-opacity:1" />
    </g>
    <rect
       style="fill:#917c6f;fill-opacity:1;stroke:none;stroke-width:0.5;stroke-miterlimit:4;stroke-dasharray:none;stroke-dashoffset:0;stroke-opacity:1"
       id="rect4595"
       width="113.40846"
       height="3.0304577"
       x="1067.2074"
       y="203.58153" />
    <path
       style="fill:none;fill-rule:evenodd;stroke:#000000;stroke-width:0.62890792px;stroke-linecap:butt;stroke-linejoin:miter;stroke-opacity:1;marker-end:url(#Arrow1Lend)"
       d="m 1393.3439,159.1013 -36.5435,9.91503"
       id="path4624"
       inkscape:connector-curvature="0" />
    <rect
       style="fill:#b7c8be;fill-opacity:1;stroke:none;stroke-width:0.5;stroke-miterlimit:4;stroke-dasharray:none;stroke-dashoffset:0;stroke-opacity:1"
       id="rect5628"
       width="5"
       height="20.892857"
       x="1348.75"
       y="163.96935" />
    <path
       style="fill:none;fill-rule:evenodd;stroke:#000000;stroke-width:0.62890792px;stroke-linecap:butt;stroke-linejoin:miter;stroke-opacity:1;marker-end:url(#Arrow1Lend-2)"
       d="m 1394.4182,173.12146 -37.8054,2.11877"
       id="path4624-0"
       inkscape:connector-curvature="0" />
    <path
       style="fill:none;fill-rule:evenodd;stroke:#000000;stroke-width:0.62890792px;stroke-linecap:butt;stroke-linejoin:miter;stroke-opacity:1;marker-end:url(#Arrow1Lend-3)"
       d="m 1393.754,187.73777 -37.2359,-6.87212"
       id="path4624-9"
       inkscape:connector-curvature="0" />
  </g>
</svg>
